#!OML:ASF F:\VICON\USERDATA\INSTALL\rory3\rory3.ASF
:FULLY-SPECIFIED
:DEGREES
112
root 0.437289 17.8729 -8.80495 -0.851087 -5.0198 -8.06775
lowerback 10.5951 1.44888 6.64059
upperback -0.120206 2.89685 2.43634
thorax -5.88302 1.26115 -1.61481
lowerneck -17.9487 -3.04017 -1.26108
upperneck 20.5025 -3.83213 -0.160362
head 9.45812 -1.90194 -0.356128
rclavicle 1.53767e-014 -1.72384e-014
rhumerus -21.0594 -14.1242 -81.2933
rradius 33.8458
rwrist -3.57745
rhand -16.6444 23.3249
rfingers 7.12502
rthumb 9.57842 -6.43735
lclavicle 1.53767e-014 -1.72384e-014
lhumerus -36.1234 5.9654 81.9033
lradius 23.1281
lwrist 6.82086
lhand -24.8332 13.9994
lfingers 7.12502
lthumb 1.67269 43.9726
rfemur 5.86214 8.07349 35.2099
rtibia 22.9133
rfoot -19.9648 -9.67891
rtoes -0.400278
lfemur -26.2626 -7.25962 -8.36676
ltibia 13.8114
lfoot -6.96575 6.54433
ltoes -1.32803
113
root 0.450527 17.8627 -8.62984 -0.54781 -4.92815 -8.03228
lowerback 10.48 1.49004 6.65532
upperback -0.353219 2.95397 2.36794
thorax -6.05725 1.27802 -1.70278
lowerneck -17.8531 -3.03608 -1.18924
upperneck 20.5958 -3.86105 -0.112225
head 9.47283 -1.90424 -0.354612
rclavicle 1.34684e-014 3.58434e-015
rhumerus -21.0789 -14.3039 -81.2598
rradius 33.9478
rwrist -3.71283
rhand -17.0685 23.113
rfingers 7.12502
rthumb 9.16928 -6.66764
lclavicle 1.34684e-014 3.58434e-015
lhumerus -36.5695 5.77992 81.8739
lradius 23.2076
lwrist 7.01367
lhand -24.7919 13.2445
lfingers 7.12502
lthumb 1.71255 43.2174
rfemur 6.12475 7.92484 35.0661
rtibia 22.8476
rfoot -20.0889 -9.71204
rtoes -1.10706
lfemur -26.4604 -7.61119 -8.33786
ltibia 13.2225
lfoot -7.12018 7.45005
ltoes -0.456582
114
root 0.463951 17.8376 -8.45942 -0.268761 -4.79569 -8.09981
lowerback 10.3323 1.47937 6.73196
upperback -0.463954 2.94337 2.37416
thorax -6.08914 1.26762 -1.73367
lowerneck -17.9472 -3.05596 -1.31878
upperneck 20.75 -3.88603 0.0285201
head 9.55048 -1.90874 -0.291453
rclavicle 2.0443e-014 1.06226e-014
rhumerus -20.9332 -14.5995 -81.2676
rradius 34.1076
rwrist -3.48652
rhand -17.3214 22.8352
rfingers 7.12502
rthumb 8.9252 -6.95605
lclavicle 2.0443e-014 1.06226e-014
lhumerus -36.7682 5.82072 81.8752
lradius 23.3254
lwrist 7.11673
lhand -24.7425 15.3477
lfingers 7.12502
lthumb 1.76027 45.3201
rfemur 6.41816 7.89352 35.1123
rtibia 22.7297
rfoot -20.0576 -9.69857
rtoes -1.46765
lfemur -26.8576 -7.68613 -8.30098
ltibia 13.1148
lfoot -7.3399 8.1443
ltoes 0.358812
115
root 0.475701 17.819 -8.28087 -0.243954 -4.70095 -8.1024
lowerback 10.278 1.48266 6.71971
upperback -0.425177 2.94066 2.4041
thorax -6.01957 1.27024 -1.69244
lowerneck -18.0018 -3.08581 -1.27319
upperneck 20.7163 -3.90079 -0.130201
head 9.54416 -1.93019 -0.356315
rclavicle -1.517e-014 -5.44522e-015
rhumerus -20.8323 -14.6931 -81.2322
rradius 34.4041
rwrist -3.49032
rhand -17.8488 22.1864
rfingers 7.12502
rthumb 8.41626 -7.62593
lclavicle -1.517e-014 -5.44522e-015
lhumerus -36.7142 6.01791 81.8943
lradius 23.3701
lwrist 6.76384
lhand -24.3137 19.0281
lfingers 7.12502
lthumb 2.17442 48.9968
rfemur 6.97095 7.94704 35.1646
rtibia 22.8975
rfoot -19.8803 -9.82901
rtoes -0.625391
lfemur -26.6995 -6.51984 -8.91708
ltibia 12.885
lfoot -7.12729 7.70098
ltoes -0.416377
116
root 0.487564 17.8114 -8.10292 -0.290637 -4.48748 -8.06724
lowerback 10.3892 1.42722 6.61026
upperback -0.440093 2.86775 2.44979
thorax -6.11132 1.23541 -1.57722
lowerneck -18.0497 -3.08349 -1.29232
upperneck 20.7479 -3.89174 -0.129758
head 9.56445 -1.9271 -0.353002
rclavicle 1.05527e-014 1.23868e-014
rhumerus -20.7886 -14.771 -81.1411
rradius 34.6056
rwrist -3.5631
rhand -18.2483 21.5006
rfingers 7.12502
rthumb 8.03072 -8.32684
lclavicle 1.05527e-014 1.23868e-014
lhumerus -36.8237 6.27175 81.8541
lradius 22.9873
lwrist 6.91168
lhand -24.6997 16.4002
lfingers 7.12502
lthumb 1.80158 46.3723
rfemur 7.59264 7.61489 35.0784
rtibia 23.0428
rfoot -19.0778 -10.2702
rtoes 1.21685
lfemur -26.7326 -5.46967 -9.63338
ltibia 13.3977
lfoot -5.1438 7.11261
ltoes 2.86874
117
root 0.504131 17.7566 -7.92363 -0.219117 -4.25108 -8.09475
lowerback 10.4305 1.35374 6.58009
upperback -0.471891 2.77478 2.4888
thorax -6.17879 1.18877 -1.50762
lowerneck -18.1599 -3.09631 -1.34935
upperneck 20.7241 -3.91402 -0.0349892
head 9.57994 -1.93052 -0.315506
rclavicle -4.94943e-015 3.24267e-015
rhumerus -20.6467 -14.8912 -81.0932
rradius 34.6233
rwrist -3.40311
rhand -18.4476 21.6278
rfingers 7.12502
rthumb 7.83838 -8.20692
lclavicle -4.94943e-015 3.24267e-015
lhumerus -36.7575 6.57218 81.7597
lradius 22.6447
lwrist 6.9077
lhand -24.8648 16.3158
lfingers 7.12502
lthumb 1.64216 46.2893
rfemur 8.13353 7.5798 35.1271
rtibia 23.0793
rfoot -18.9577 -10.3911
rtoes 0.0412904
lfemur -27.4971 -5.6929 -9.74258
ltibia 14.6498
lfoot -4.57145 8.03795
ltoes 4.02372
